<mxfile host="app.diagrams.net" modified="2023-05-07T07:42:25.832Z" agent="Mozilla/5.0 (Windows NT 10.0; Win64; x64) AppleWebKit/537.36 (KHTML, like Gecko) Chrome/112.0.0.0 Safari/537.36" etag="pHl9DuN8gVH_vMXhFM58" version="21.2.9" type="github">
  <diagram name="第 1 页" id="HIuq3_t_WWI3Xqt05YjS">
    <mxGraphModel dx="2261" dy="840" grid="1" gridSize="10" guides="1" tooltips="1" connect="1" arrows="1" fold="1" page="1" pageScale="1" pageWidth="827" pageHeight="1169" math="0" shadow="0">
      <root>
        <mxCell id="0" />
        <mxCell id="1" parent="0" />
        <mxCell id="rpQipbjhuQACwIGidh59-23" style="edgeStyle=orthogonalEdgeStyle;rounded=0;orthogonalLoop=1;jettySize=auto;html=1;exitX=0.5;exitY=1;exitDx=0;exitDy=0;entryX=0.5;entryY=0;entryDx=0;entryDy=0;" edge="1" parent="1" source="rpQipbjhuQACwIGidh59-7" target="rpQipbjhuQACwIGidh59-10">
          <mxGeometry relative="1" as="geometry" />
        </mxCell>
        <mxCell id="rpQipbjhuQACwIGidh59-7" value="&lt;font style=&quot;font-size: 24px;&quot;&gt;开始&lt;/font&gt;" style="ellipse;whiteSpace=wrap;html=1;" vertex="1" parent="1">
          <mxGeometry x="10" y="450" width="200" height="80" as="geometry" />
        </mxCell>
        <mxCell id="rpQipbjhuQACwIGidh59-24" style="edgeStyle=orthogonalEdgeStyle;rounded=0;orthogonalLoop=1;jettySize=auto;html=1;exitX=0.5;exitY=1;exitDx=0;exitDy=0;entryX=0.445;entryY=-0.036;entryDx=0;entryDy=0;entryPerimeter=0;" edge="1" parent="1" source="rpQipbjhuQACwIGidh59-10" target="rpQipbjhuQACwIGidh59-11">
          <mxGeometry relative="1" as="geometry" />
        </mxCell>
        <mxCell id="rpQipbjhuQACwIGidh59-10" value="&lt;font style=&quot;font-size: 24px;&quot;&gt;初始化Lexer&lt;br&gt;实例lexer&lt;/font&gt;" style="rounded=0;whiteSpace=wrap;html=1;" vertex="1" parent="1">
          <mxGeometry x="25" y="570" width="170" height="70" as="geometry" />
        </mxCell>
        <mxCell id="rpQipbjhuQACwIGidh59-25" style="edgeStyle=orthogonalEdgeStyle;rounded=0;orthogonalLoop=1;jettySize=auto;html=1;entryX=0.481;entryY=0.03;entryDx=0;entryDy=0;entryPerimeter=0;" edge="1" parent="1" source="rpQipbjhuQACwIGidh59-11" target="rpQipbjhuQACwIGidh59-12">
          <mxGeometry relative="1" as="geometry" />
        </mxCell>
        <mxCell id="rpQipbjhuQACwIGidh59-11" value="&lt;font style=&quot;font-size: 24px;&quot;&gt;输入sql语句作为&lt;br&gt;lexer的tokenize方法的参数开始进行词法分析&lt;/font&gt;" style="rounded=0;whiteSpace=wrap;html=1;" vertex="1" parent="1">
          <mxGeometry x="-30" y="680" width="310" height="110" as="geometry" />
        </mxCell>
        <mxCell id="rpQipbjhuQACwIGidh59-26" style="edgeStyle=orthogonalEdgeStyle;rounded=0;orthogonalLoop=1;jettySize=auto;html=1;entryX=0.526;entryY=-0.012;entryDx=0;entryDy=0;entryPerimeter=0;" edge="1" parent="1" source="rpQipbjhuQACwIGidh59-12" target="rpQipbjhuQACwIGidh59-13">
          <mxGeometry relative="1" as="geometry" />
        </mxCell>
        <mxCell id="rpQipbjhuQACwIGidh59-12" value="&lt;font style=&quot;font-size: 24px;&quot;&gt;将sql整个作为输入匹配前缀，&lt;br&gt;依次匹配所有token类型，&lt;br&gt;最后得到最匹配的&lt;br&gt;&lt;/font&gt;" style="rounded=0;whiteSpace=wrap;html=1;" vertex="1" parent="1">
          <mxGeometry x="-40" y="840" width="345" height="100" as="geometry" />
        </mxCell>
        <mxCell id="rpQipbjhuQACwIGidh59-27" style="edgeStyle=orthogonalEdgeStyle;rounded=0;orthogonalLoop=1;jettySize=auto;html=1;entryX=0.5;entryY=0;entryDx=0;entryDy=0;" edge="1" parent="1" source="rpQipbjhuQACwIGidh59-13" target="rpQipbjhuQACwIGidh59-15">
          <mxGeometry relative="1" as="geometry" />
        </mxCell>
        <mxCell id="rpQipbjhuQACwIGidh59-13" value="&lt;font style=&quot;font-size: 24px;&quot;&gt;保存本次token到&lt;br&gt;tokens数组当中&lt;/font&gt;" style="rounded=0;whiteSpace=wrap;html=1;" vertex="1" parent="1">
          <mxGeometry x="-10" y="980" width="270" height="80" as="geometry" />
        </mxCell>
        <mxCell id="rpQipbjhuQACwIGidh59-29" style="edgeStyle=orthogonalEdgeStyle;rounded=0;orthogonalLoop=1;jettySize=auto;html=1;entryX=0.5;entryY=0;entryDx=0;entryDy=0;entryPerimeter=0;" edge="1" parent="1" source="rpQipbjhuQACwIGidh59-15" target="rpQipbjhuQACwIGidh59-16">
          <mxGeometry relative="1" as="geometry" />
        </mxCell>
        <mxCell id="rpQipbjhuQACwIGidh59-15" value="&lt;font style=&quot;font-size: 24px;&quot;&gt;将本次匹配到的&lt;br&gt;单词从sql中删除&lt;/font&gt;" style="rounded=0;whiteSpace=wrap;html=1;" vertex="1" parent="1">
          <mxGeometry x="5" y="1100" width="240" height="70" as="geometry" />
        </mxCell>
        <mxCell id="rpQipbjhuQACwIGidh59-17" style="edgeStyle=orthogonalEdgeStyle;rounded=0;orthogonalLoop=1;jettySize=auto;html=1;exitX=1;exitY=0.5;exitDx=0;exitDy=0;exitPerimeter=0;entryX=1;entryY=0.5;entryDx=0;entryDy=0;" edge="1" parent="1" source="rpQipbjhuQACwIGidh59-16" target="rpQipbjhuQACwIGidh59-12">
          <mxGeometry relative="1" as="geometry">
            <Array as="points">
              <mxPoint x="390" y="1285" />
              <mxPoint x="390" y="890" />
            </Array>
          </mxGeometry>
        </mxCell>
        <mxCell id="rpQipbjhuQACwIGidh59-21" style="edgeStyle=orthogonalEdgeStyle;rounded=0;orthogonalLoop=1;jettySize=auto;html=1;exitX=0;exitY=0.5;exitDx=0;exitDy=0;exitPerimeter=0;" edge="1" parent="1" source="rpQipbjhuQACwIGidh59-16" target="rpQipbjhuQACwIGidh59-20">
          <mxGeometry relative="1" as="geometry" />
        </mxCell>
        <mxCell id="rpQipbjhuQACwIGidh59-16" value="&lt;font style=&quot;font-size: 24px;&quot;&gt;剩余sql字符串长度是否为0&lt;/font&gt;" style="strokeWidth=2;html=1;shape=mxgraph.flowchart.decision;whiteSpace=wrap;" vertex="1" parent="1">
          <mxGeometry x="-45" y="1210" width="340" height="150" as="geometry" />
        </mxCell>
        <mxCell id="rpQipbjhuQACwIGidh59-19" value="&lt;font style=&quot;font-size: 24px;&quot;&gt;N&lt;/font&gt;" style="text;html=1;align=center;verticalAlign=middle;resizable=0;points=[];autosize=1;strokeColor=none;fillColor=none;" vertex="1" parent="1">
          <mxGeometry x="330" y="1243" width="40" height="40" as="geometry" />
        </mxCell>
        <mxCell id="rpQipbjhuQACwIGidh59-20" value="&lt;font style=&quot;font-size: 24px;&quot;&gt;结束&lt;/font&gt;" style="ellipse;whiteSpace=wrap;html=1;" vertex="1" parent="1">
          <mxGeometry x="65" y="1440" width="120" height="80" as="geometry" />
        </mxCell>
        <mxCell id="rpQipbjhuQACwIGidh59-22" value="&lt;font style=&quot;font-size: 24px;&quot;&gt;Y&lt;/font&gt;" style="text;html=1;align=center;verticalAlign=middle;resizable=0;points=[];autosize=1;strokeColor=none;fillColor=none;" vertex="1" parent="1">
          <mxGeometry x="-90" y="1253" width="40" height="40" as="geometry" />
        </mxCell>
      </root>
    </mxGraphModel>
  </diagram>
</mxfile>
